<?xml version="1.0" encoding="UTF-8" standalone="no"?>
<!-- Created with Inkscape (http://www.inkscape.org/) -->

<svg
   xmlns:dc="http://purl.org/dc/elements/1.1/"
   xmlns:cc="http://creativecommons.org/ns#"
   xmlns:rdf="http://www.w3.org/1999/02/22-rdf-syntax-ns#"
   xmlns:svg="http://www.w3.org/2000/svg"
   xmlns="http://www.w3.org/2000/svg"
   xmlns:xlink="http://www.w3.org/1999/xlink"
   xmlns:sodipodi="http://sodipodi.sourceforge.net/DTD/sodipodi-0.dtd"
   xmlns:inkscape="http://www.inkscape.org/namespaces/inkscape"
   width="744.09448819"
   height="1052.3622047"
   id="svg8126"
   version="1.1"
   inkscape:version="0.48.2 r9819"
   sodipodi:docname="New document 8">
  <defs
     id="defs8128">
    <radialGradient
       inkscape:collect="always"
       xlink:href="#linearGradient4022"
       id="radialGradient7947"
       gradientUnits="userSpaceOnUse"
       gradientTransform="matrix(1,0,0,7.7331261,0,-5946.6087)"
       cx="317.31418"
       cy="883.08838"
       fx="317.31418"
       fy="883.08838"
       r="5.833631" />
    <linearGradient
       id="linearGradient4022">
      <stop
         id="stop4024"
         offset="0"
         style="stop-color:#777777;stop-opacity:1;" />
      <stop
         id="stop4026"
         offset="1"
         style="stop-color:#000000;stop-opacity:1;" />
    </linearGradient>
    <radialGradient
       inkscape:collect="always"
       xlink:href="#linearGradient4038"
       id="radialGradient7949"
       gradientUnits="userSpaceOnUse"
       gradientTransform="matrix(-2.6399252,0,0,11.628886,3850.5816,-8788.3418)"
       cx="305.55225"
       cy="880.95654"
       fx="305.55225"
       fy="880.95654"
       r="6.0896101" />
    <linearGradient
       id="linearGradient4038">
      <stop
         id="stop4040"
         offset="0"
         style="stop-color:#7e7e7e;stop-opacity:1;" />
      <stop
         id="stop4042"
         offset="1"
         style="stop-color:#505050;stop-opacity:1;" />
    </linearGradient>
    <linearGradient
       inkscape:collect="always"
       xlink:href="#linearGradient5296"
       id="linearGradient7951"
       gradientUnits="userSpaceOnUse"
       gradientTransform="matrix(-2.6399252,0,0,2.6399252,3850.5816,-869.45761)"
       x1="297.69489"
       y1="905.80853"
       x2="298.03003"
       y2="858.60919" />
    <linearGradient
       id="linearGradient5296">
      <stop
         id="stop5298"
         offset="0"
         style="stop-color:#a5a5a5;stop-opacity:1;" />
      <stop
         style="stop-color:#ffffff;stop-opacity:1;"
         offset="0.40000007"
         id="stop5300" />
      <stop
         id="stop5302"
         offset="1"
         style="stop-color:#5e5e5e;stop-opacity:1;" />
    </linearGradient>
    <linearGradient
       inkscape:collect="always"
       xlink:href="#linearGradient5304"
       id="linearGradient7953"
       gradientUnits="userSpaceOnUse"
       gradientTransform="matrix(-1.2967953,0,0,-1.4707756,3469.0702,2755.2095)"
       x1="297.69489"
       y1="905.80853"
       x2="296.26227"
       y2="889.5451" />
    <linearGradient
       id="linearGradient5304">
      <stop
         style="stop-color:#d8d8d8;stop-opacity:1;"
         offset="0"
         id="stop5306" />
      <stop
         style="stop-color:#9f9f9f;stop-opacity:1;"
         offset="1"
         id="stop5308" />
    </linearGradient>
    <linearGradient
       inkscape:collect="always"
       xlink:href="#linearGradient5382"
       id="linearGradient7955"
       gradientUnits="userSpaceOnUse"
       gradientTransform="matrix(-0.84843491,0.52929973,-0.04595812,0.99894337,727,-11.999992)"
       x1="-2656.366"
       y1="2736.2673"
       x2="-2665.0237"
       y2="2896.0994" />
    <linearGradient
       id="linearGradient5382"
       inkscape:collect="always">
      <stop
         id="stop5384"
         offset="0"
         style="stop-color:#ffffff;stop-opacity:1" />
      <stop
         id="stop5386"
         offset="1"
         style="stop-color:#bebebe;stop-opacity:1" />
    </linearGradient>
    <radialGradient
       inkscape:collect="always"
       xlink:href="#linearGradient4022"
       id="radialGradient7957"
       gradientUnits="userSpaceOnUse"
       gradientTransform="matrix(1,0,0,7.7331261,0,-5946.6087)"
       cx="317.31418"
       cy="883.08838"
       fx="317.31418"
       fy="883.08838"
       r="5.833631" />
    <linearGradient
       id="linearGradient8013">
      <stop
         id="stop8015"
         offset="0"
         style="stop-color:#777777;stop-opacity:1;" />
      <stop
         id="stop8017"
         offset="1"
         style="stop-color:#000000;stop-opacity:1;" />
    </linearGradient>
    <radialGradient
       inkscape:collect="always"
       xlink:href="#linearGradient4038"
       id="radialGradient7959"
       gradientUnits="userSpaceOnUse"
       gradientTransform="matrix(2.6399252,0,0,11.628886,2046.6767,-8788.3418)"
       cx="305.55225"
       cy="880.95654"
       fx="305.55225"
       fy="880.95654"
       r="6.0896101" />
    <linearGradient
       id="linearGradient8020">
      <stop
         id="stop8022"
         offset="0"
         style="stop-color:#7e7e7e;stop-opacity:1;" />
      <stop
         id="stop8024"
         offset="1"
         style="stop-color:#505050;stop-opacity:1;" />
    </linearGradient>
    <linearGradient
       inkscape:collect="always"
       xlink:href="#linearGradient5296"
       id="linearGradient7961"
       gradientUnits="userSpaceOnUse"
       gradientTransform="matrix(2.6399252,0,0,2.6399252,2046.6767,-869.45761)"
       x1="297.69489"
       y1="905.80853"
       x2="298.03003"
       y2="858.60919" />
    <linearGradient
       id="linearGradient8027">
      <stop
         id="stop8029"
         offset="0"
         style="stop-color:#a5a5a5;stop-opacity:1;" />
      <stop
         style="stop-color:#ffffff;stop-opacity:1;"
         offset="0.40000007"
         id="stop8031" />
      <stop
         id="stop8033"
         offset="1"
         style="stop-color:#5e5e5e;stop-opacity:1;" />
    </linearGradient>
    <linearGradient
       inkscape:collect="always"
       xlink:href="#linearGradient5304"
       id="linearGradient7963"
       gradientUnits="userSpaceOnUse"
       gradientTransform="matrix(1.2967953,0,0,-1.4707756,2428.1881,2755.2095)"
       x1="297.69489"
       y1="905.80853"
       x2="296.26227"
       y2="889.5451" />
    <linearGradient
       id="linearGradient8036">
      <stop
         style="stop-color:#d8d8d8;stop-opacity:1;"
         offset="0"
         id="stop8038" />
      <stop
         style="stop-color:#9f9f9f;stop-opacity:1;"
         offset="1"
         id="stop8040" />
    </linearGradient>
    <linearGradient
       inkscape:collect="always"
       xlink:href="#linearGradient5372"
       id="linearGradient7965"
       gradientUnits="userSpaceOnUse"
       gradientTransform="translate(882.86203,-479.80561)"
       x1="2508.1587"
       y1="-0.20559551"
       x2="2499.501"
       y2="159.62634" />
    <linearGradient
       inkscape:collect="always"
       id="linearGradient5372">
      <stop
         style="stop-color:#ffffff;stop-opacity:1"
         offset="0"
         id="stop5374" />
      <stop
         style="stop-color:#bebebe;stop-opacity:1"
         offset="1"
         id="stop5376" />
    </linearGradient>
    <linearGradient
       inkscape:collect="always"
       xlink:href="#linearGradient5282"
       id="linearGradient7967"
       gradientUnits="userSpaceOnUse"
       gradientTransform="matrix(1,-0.01267858,0,1.1116659,1147,-122.89788)"
       x1="1801"
       y1="1250.3622"
       x2="1801"
       y2="1290.4121" />
    <linearGradient
       id="linearGradient5282">
      <stop
         id="stop5284"
         offset="0"
         style="stop-color:#ac1e1e;stop-opacity:1;" />
      <stop
         id="stop5286"
         offset="1"
         style="stop-color:#222222;stop-opacity:1;" />
    </linearGradient>
    <linearGradient
       inkscape:collect="always"
       xlink:href="#linearGradient7587"
       id="linearGradient7969"
       gradientUnits="userSpaceOnUse"
       gradientTransform="translate(3,0)"
       x1="2882"
       y1="1455.3622"
       x2="2851.9834"
       y2="1455.3622" />
    <linearGradient
       inkscape:collect="always"
       id="linearGradient7587">
      <stop
         style="stop-color:#000000;stop-opacity:1;"
         offset="0"
         id="stop7589" />
      <stop
         style="stop-color:#000000;stop-opacity:0;"
         offset="1"
         id="stop7591" />
    </linearGradient>
    <filter
       color-interpolation-filters="sRGB"
       inkscape:collect="always"
       id="filter7607"
       x="-0.45782608"
       width="1.9156522"
       y="-0.11814867"
       height="1.2362972">
      <feGaussianBlur
         inkscape:collect="always"
         stdDeviation="6.1043478"
         id="feGaussianBlur7609" />
    </filter>
    <linearGradient
       inkscape:collect="always"
       xlink:href="#linearGradient7587"
       id="linearGradient7971"
       gradientUnits="userSpaceOnUse"
       gradientTransform="translate(3,0)"
       x1="2882"
       y1="1455.3622"
       x2="2851.9834"
       y2="1455.3622" />
    <linearGradient
       inkscape:collect="always"
       xlink:href="#linearGradient7587"
       id="linearGradient7973"
       gradientUnits="userSpaceOnUse"
       gradientTransform="matrix(1.84375,0,0,1,-8328.5314,-2904.7244)"
       x1="2882"
       y1="1455.3622"
       x2="2851.9834"
       y2="1455.3622" />
    <filter
       color-interpolation-filters="sRGB"
       inkscape:collect="always"
       id="filter7680"
       x="-0.23464996"
       width="1.4692999"
       y="-0.11164797"
       height="1.2232959">
      <feGaussianBlur
         inkscape:collect="always"
         stdDeviation="5.7684783"
         id="feGaussianBlur7682" />
    </filter>
    <linearGradient
       inkscape:collect="always"
       xlink:href="#linearGradient7587"
       id="linearGradient7975"
       gradientUnits="userSpaceOnUse"
       gradientTransform="matrix(1.84375,0,0,1,-8328.5314,-2904.7244)"
       x1="2882"
       y1="1455.3622"
       x2="2851.9834"
       y2="1455.3622" />
    <linearGradient
       inkscape:collect="always"
       xlink:href="#linearGradient7258"
       id="linearGradient7977"
       gradientUnits="userSpaceOnUse"
       gradientTransform="translate(739,33)"
       x1="2296"
       y1="1467.3622"
       x2="2174.7158"
       y2="1293.7836" />
    <linearGradient
       id="linearGradient7258">
      <stop
         id="stop7260"
         offset="0"
         style="stop-color:#659fcf;stop-opacity:1;" />
      <stop
         id="stop7262"
         offset="1"
         style="stop-color:#ffffff;stop-opacity:1;" />
    </linearGradient>
    <linearGradient
       inkscape:collect="always"
       xlink:href="#linearGradient5033"
       id="linearGradient7979"
       gradientUnits="userSpaceOnUse"
       gradientTransform="translate(1147.4743,-18.79899)"
       x1="1801"
       y1="1549.3622"
       x2="1712"
       y2="1148.3622" />
    <linearGradient
       id="linearGradient5033">
      <stop
         style="stop-color:#ffffff;stop-opacity:1;"
         offset="0"
         id="stop5035" />
      <stop
         style="stop-color:#ffffff;stop-opacity:0;"
         offset="1"
         id="stop5037" />
    </linearGradient>
    <linearGradient
       y2="1148.3622"
       x2="1712"
       y1="1549.3622"
       x1="1801"
       gradientTransform="translate(1147.4743,-18.79899)"
       gradientUnits="userSpaceOnUse"
       id="linearGradient8124"
       xlink:href="#linearGradient5033"
       inkscape:collect="always" />
  </defs>
  <sodipodi:namedview
     id="base"
     pagecolor="#ffffff"
     bordercolor="#666666"
     borderopacity="1.0"
     inkscape:pageopacity="0.0"
     inkscape:pageshadow="2"
     inkscape:zoom="0.35"
     inkscape:cx="375"
     inkscape:cy="520"
     inkscape:document-units="px"
     inkscape:current-layer="layer1"
     showgrid="false"
     inkscape:window-width="469"
     inkscape:window-height="455"
     inkscape:window-x="25"
     inkscape:window-y="25"
     inkscape:window-maximized="0" />
  <metadata
     id="metadata8131">
    <rdf:RDF>
      <cc:Work
         rdf:about="">
        <dc:format>image/svg+xml</dc:format>
        <dc:type
           rdf:resource="http://purl.org/dc/dcmitype/StillImage" />
        <dc:title></dc:title>
      </cc:Work>
    </rdf:RDF>
  </metadata>
  <g
     inkscape:label="Layer 1"
     inkscape:groupmode="layer"
     id="layer1">
    <g
       id="g7889"
       transform="translate(-2573.6123,-860.60106)"
       inkscape:export-xdpi="17.723703"
       inkscape:export-ydpi="17.723703"
       inkscape:export-filename="C:\Users\lbradley\Desktop\MicroJuke\64x62.png">
      <path
         style="font-size:446.23358154px;font-style:normal;font-variant:normal;font-weight:normal;font-stretch:normal;text-align:start;line-height:125%;letter-spacing:0px;word-spacing:0px;writing-mode:lr-tb;text-anchor:start;fill:#265377;fill-opacity:1;stroke:none;font-family:Serif;-inkscape-font-specification:Serif"
         d="m 2873.5312,1298.8125 c -1.1678,61.8075 2.4764,123.7758 -2.0573,185.4696 -4.699,17.9629 -12.0909,38.699 -2.0364,56.1554 9.8384,17.5779 38.3718,20.7036 50.75,4.1563 10.3999,-11.716 10.0977,-29.2232 4.3875,-42.9945 -1.2802,-5.3198 -3.7555,-11.1874 -4.1375,-16.2243 19.8296,3.2855 39.7672,-5.6414 54.3125,-18.625 14.372,22.5693 50.545,26.6749 69.1562,7.0312 15.4337,-15.0295 16.3943,-38.437 16.9478,-58.934 0.2913,-6.5191 0.422,-13.0435 0.6148,-19.566 -7.3554,5.7821 -8.9236,16.1645 -16.5626,21.4376 -6.8122,-0.6809 -14.4175,0.4093 -18.9062,6.0624 -0.4897,-41.988 -0.064,-83.9793 -0.25,-125.9687 -19.7188,0 -39.4375,0 -59.1562,0 0,41.6458 0,83.2917 0,124.9375 -7.9224,6.261 -18.2229,15.0311 -28.8438,10.75 -8.2066,-6.797 -3.956,-18.8786 -5.108,-28.0936 -0.5285,-35.8629 0.3982,-71.7318 -0.267,-107.5939 -19.6146,0 -39.2292,0 -58.8438,0 l 0,1 0,1 z"
         id="path7891"
         inkscape:connector-curvature="0" />
      <rect
         style="fill:#3c3c3c;fill-opacity:1;stroke:none"
         id="rect7893"
         width="30.266193"
         height="29.683512"
         x="-4066.9341"
         y="-1958.1232"
         rx="14.611264"
         ry="1.5002497"
         transform="matrix(-0.61588907,-0.78783288,-0.28968374,0.95712242,0,0)" />
      <rect
         transform="matrix(0.61588907,-0.78783288,0.28968374,0.95712242,0,0)"
         ry="1.5002497"
         rx="14.611264"
         y="3723.7078"
         x="2835.8093"
         height="29.683512"
         width="30.266193"
         id="rect7895"
         style="fill:#3c3c3c;fill-opacity:1;stroke:none" />
      <path
         style="fill:#341313;fill-opacity:1;stroke:none"
         d="m 2945.9688,1230.5 c -30.0764,0.1013 -59.745,10.0358 -85.0313,25.7812 -7.3107,8.5998 -18.159,13.203 -24.8485,22.3467 -31.329,32.7538 -48.7061,80.6309 -39.714,125.8096 1.5356,3.9457 5.3911,6.5572 9.3125,7.75 -12.5182,9.8319 -13.5223,26.961 -14.5958,41.6557 -0.546,17.5231 0.4894,38.0695 14.5645,50.3443 2.5035,1.2771 4.4605,2.6638 3.9376,5.8437 4.7198,14.6606 18.6157,28.6202 34.9062,26.5938 5.6303,6.0376 15.2356,7.4735 23.125,5.7188 9.6462,-2.245 16.2682,-10.3092 22.0312,-17.7188 9.893,-16.4541 9.6665,-36.6682 11.5626,-55.3125 1.5853,-28.9626 0.3914,-59.504 -12.5021,-85.8968 -7.7128,-10.1199 -21.7771,-17.2588 -34.3729,-12.5719 -0.334,-13.4046 -0.7274,-26.8875 -3.1563,-40.0938 9.7264,-10.6872 18.8923,-24.0077 34.0313,-26.875 10.6704,-4.1178 20.5683,-10.8349 32.1969,-11.77 42.1292,-8.8495 88.6599,1.8649 121.0218,30.7075 3.4026,4.0564 8.9247,8.1029 6.1563,14.0625 -1.7681,11.1539 -0.1626,22.6537 -1.7188,33.875 -17.5655,-5.6973 -35.8659,8.6233 -40.2188,25.3438 -5.5337,19.0742 -6.4367,39.2529 -7.25,59.0624 -0.094,23.8637 2.3014,48.5728 12.4634,70.3474 7.7059,10.1742 19.9641,20.7934 33.7554,16.9652 6.0926,-1.2746 10.6503,-7.1086 17.2188,-6 15.3462,-1.2839 26.4997,-15.4677 29.4374,-29.75 5.6343,-4.0065 10.9148,-8.7355 12.9063,-15.5938 6.2181,-16.0347 5.5795,-34.032 3.9375,-50.875 -1.4925,-10.5329 -5.857,-21.6029 -13.875,-28.4375 9.5106,-3.3978 11.6376,-14.746 11.0235,-23.6548 2.3473,-48.2102 -22.1057,-94.8146 -58.5022,-125.1868 -7.5752,-8.7022 -16.6613,-16.0006 -28.0587,-18.8689 -22.2799,-8.1659 -45.8175,-14.1168 -69.7438,-13.602 z"
         id="path7897"
         inkscape:connector-curvature="0" />
      <path
         style="fill:#afafaf;fill-opacity:1;stroke:none"
         d="m 2864.8438,1377.3438 c -8.4589,-0.2722 -16.4044,4.3945 -21.3126,11 -13.7665,-1.2799 -24.086,11.3196 -27.0624,23.5312 -0.3092,3.0409 -2.0092,5.2807 -4.9688,5.8438 -11.0117,7.5872 -10.6948,22.5291 -12.375,34.4062 -0.9147,15.5864 0.064,33.1606 10.4062,45.5938 2.3143,1.8421 6.8973,1.6487 6.4376,5.6562 3.3024,11.726 11.5081,25.3208 25.2187,25.375 2.3256,0.097 5.3483,-2.9652 6.5625,0.375 6.7979,7.2098 20.793,8.8076 26.6875,-0.2812 12.0227,-7.0158 14.1043,-22.1749 16.4687,-34.6563 4.116,-34.7511 5.5537,-71.5989 -7.5937,-104.5937 -3.8568,-5.5536 -9.9627,-9.6608 -16.1875,-12.125 -0.7481,-0.1663 -1.5202,-0.2115 -2.2812,-0.125 z m 167.125,0.062 c -5.6336,0.2183 -9.5221,5.1285 -14.0626,7.6876 -11.148,12.2723 -10.6958,30.1221 -13.2187,45.5937 -2.5619,29.8524 -1.9616,61.0928 8.9687,89.25 3.6536,5.5158 9.2797,9.5354 14.375,13.625 7.9075,3.9261 17.7688,0.3473 23,-6.0937 11.3263,4.5407 23.049,-5.0409 26.9063,-15.375 2.5768,-4.677 2.0346,-12.0573 8.2187,-13.6876 10.8395,-7.7741 10.6823,-22.8783 12.0275,-34.8732 0.7288,-15.382 -0.4241,-32.6257 -10.6212,-44.8455 -2.5771,-1.8515 -7.0792,-2.1778 -6.5,-6.375 -3.2928,-12.2234 -13.2865,-25.0919 -27.2813,-23.9375 -2.0724,-0.7376 -2.7419,-4.2228 -5.0937,-5.2812 -4.6751,-3.8051 -10.6506,-5.9751 -16.7187,-5.6876 z"
         id="path7899"
         inkscape:connector-curvature="0" />
      <path
         inkscape:connector-curvature="0"
         id="path7901"
         d="m 3070.5938,1320.3125 c -9.7842,2.417 -15.5411,13.4628 -14.3438,23.125 -1.9239,39.137 -4.0015,78.3467 -5.2188,117.4687 1.156,6.1624 9.1855,4.9974 12.5,1.4376 6.7906,-4.7995 8.8943,-13.4394 8.2649,-21.4346 2.0779,-38.2605 3.5958,-76.7535 5.3914,-114.9092 -0.4216,-3.1857 -3.0818,-6.2406 -6.5937,-5.6875 z"
         style="fill:#d5d5d5;fill-opacity:1;stroke:none" />
      <path
         style="fill:#d5d5d5;fill-opacity:1;stroke:none"
         d="m 2824.375,1316.375 c -8.7925,1.6799 -9.4933,12.5583 -7.8438,19.6562 2.4168,39.5116 2.2003,79.3141 6.5938,118.625 3.1575,8.8324 13.657,18.1721 23.2812,12.875 7.4908,-6.632 2.4107,-17.138 3.2136,-25.6225 -2.1465,-36.7755 -2.0807,-73.8366 -6.1198,-110.4087 -3.1201,-7.7759 -9.9671,-15.6402 -19.125,-15.125 z"
         id="path7903"
         inkscape:connector-curvature="0" />
      <path
         style="fill:#cdcdcd;fill-opacity:1;stroke:none"
         d="m 2944.4062,1238.5312 c -66.0781,0.4193 -127.7433,51.8516 -139.6962,116.6753 -3.0255,15.4078 -5.1788,32.2162 -0.1162,47.2935 4.5529,6.0455 14.2991,0.1281 13.0994,-6.6477 2.5634,-27.1707 12.7313,-53.6762 30.713,-74.4148 26.6545,-31.7669 69.115,-50.2571 110.8083,-45.9706 46.1388,3.8312 89.2912,33.6264 107.7027,76.4107 7.0405,15.4361 10.313,32.2438 12.364,48.8724 2.6176,6.522 13.7605,4.6341 13.9063,-2.4688 3.6885,-20.0373 -0.3021,-40.78 -6.2187,-59.9687 -17.1959,-51.4054 -64.2755,-91.7415 -118.3968,-98.3876 -7.9545,-1.1942 -16.088,-1.5457 -24.1658,-1.3937 z"
         id="path7905"
         inkscape:connector-curvature="0" />
      <path
         style="fill:#c65d5d;fill-opacity:1;stroke:none"
         d="m 2943.0312,1238.625 c -26.6312,0.7148 -52.1969,10.1044 -75.5937,22.2188 -5.0786,10.7668 -8.2178,26.3147 1.9687,35.125 8.2907,5.3788 17.306,-1.8593 24.75,-5.1876 46.7592,-18.8584 102.1875,-9.3402 142.8126,19.4063 3.229,2.2619 5.7674,-2.1866 3.5,-4.75 -5.0527,-6.4555 -5.7444,-14.8292 -4.3126,-22.6875 1.7243,-9.5141 -0.7249,-20.7626 -10,-25.4062 -11.6296,-5.6586 -23.9179,-9.8284 -36.4374,-13.2188 -15.2103,-3.8916 -30.9364,-5.8901 -46.6876,-5.5 z"
         id="path7907"
         inkscape:connector-curvature="0" />
      <path
         transform="matrix(-2.6399252,0,0,2.4501267,3857.1151,-708.83018)"
         d="m 320.31938,883.18689 c 0,14.93755 -2.61181,27.04683 -5.83363,27.04683 -3.22183,0 -5.83363,-12.10928 -5.83363,-27.04683 0,-14.93755 2.6118,-27.04684 5.83363,-27.04684 3.22182,0 5.83363,12.10929 5.83363,27.04684 z"
         sodipodi:ry="27.046835"
         sodipodi:rx="5.833631"
         sodipodi:cy="883.18689"
         sodipodi:cx="314.48575"
         id="path7909"
         style="fill:url(#radialGradient7947);fill-opacity:1;stroke:none"
         sodipodi:type="arc" />
      <path
         sodipodi:nodetypes="sssccs"
         inkscape:connector-curvature="0"
         id="path7911"
         d="m 3036.543,1386.0285 c 11.8675,0 23.4796,27.4763 23.4796,69.4878 0,42.0115 -11.6121,71.4441 -23.4796,71.4441 -3.8809,0 -5.5301,0.9978 -8.6726,-5.3738 l 0,-132.051 c 3.1425,-6.3716 4.7917,-3.5071 8.6726,-3.5071 z"
         style="fill:url(#radialGradient7949);fill-opacity:1;stroke:none" />
      <path
         style="fill:url(#linearGradient7951);fill-opacity:1;stroke:none"
         d="m 3058.1883,1396.7621 c 10.8339,0 21.4348,24.1112 21.4348,60.9775 0,36.8663 -10.6009,62.6943 -21.4348,62.6943 -3.543,0 -5.0486,0.8756 -7.9174,-4.7157 l 0,-115.8786 c 2.8688,-5.5912 4.3744,-3.0775 7.9174,-3.0775 z"
         id="path7913"
         inkscape:connector-curvature="0"
         sodipodi:nodetypes="sssccs" />
      <path
         sodipodi:nodetypes="sssccs"
         inkscape:connector-curvature="0"
         id="path7915"
         d="m 3079.8273,1492.6358 c 5.3219,0 10.5293,-13.433 10.5293,-33.9723 0,-20.5392 -5.2074,-34.9287 -10.5293,-34.9287 -1.7404,0 -2.4799,-0.4878 -3.8892,2.6272 l 0,64.5592 c 1.4093,3.1151 2.1488,1.7146 3.8892,1.7146 z"
         style="fill:url(#linearGradient7953);fill-opacity:1;stroke:none" />
      <path
         style="fill:url(#linearGradient7955);fill-opacity:1;stroke:none"
         d="m 3070.6562,1320.3125 c -9.8398,2.3315 -15.6031,13.443 -14.4062,23.1563 -1.9117,39.1874 -4.1139,78.4512 -5.1562,117.625 1.3151,6.1277 9.4003,4.6674 12.6562,1.0937 6.6946,-4.9343 8.6131,-13.3638 8.0466,-21.2783 2.0666,-38.2707 3.5788,-76.7129 5.3909,-114.9092 -0.4179,-3.2164 -3.0583,-6.2045 -6.5313,-5.6875 z"
         id="path7917"
         inkscape:connector-curvature="0" />
      <path
         sodipodi:type="arc"
         style="fill:url(#radialGradient7957);fill-opacity:1;stroke:none"
         id="path7919"
         sodipodi:cx="314.48575"
         sodipodi:cy="883.18689"
         sodipodi:rx="5.833631"
         sodipodi:ry="27.046835"
         d="m 320.31938,883.18689 c 0,14.93755 -2.61181,27.04683 -5.83363,27.04683 -3.22183,0 -5.83363,-12.10928 -5.83363,-27.04683 0,-14.93755 2.6118,-27.04684 5.83363,-27.04684 3.22182,0 5.83363,12.10929 5.83363,27.04684 z"
         transform="matrix(2.6399252,0,0,2.4501267,2040.1432,-708.83018)" />
      <path
         style="fill:url(#radialGradient7959);fill-opacity:1;stroke:none"
         d="m 2860.7153,1386.0285 c -11.8675,0 -23.4797,27.4763 -23.4797,69.4878 0,42.0115 11.6122,71.4441 23.4797,71.4441 3.8809,0 5.5301,0.9978 8.6726,-5.3738 l 0,-132.051 c -3.1425,-6.3716 -4.7917,-3.5071 -8.6726,-3.5071 z"
         id="path7921"
         inkscape:connector-curvature="0"
         sodipodi:nodetypes="sssccs" />
      <path
         sodipodi:nodetypes="sssccs"
         inkscape:connector-curvature="0"
         id="path7923"
         d="m 2839.07,1396.7621 c -10.8339,0 -21.4348,24.1112 -21.4348,60.9775 0,36.8663 10.6009,62.6943 21.4348,62.6943 3.543,0 5.0486,0.8756 7.9174,-4.7157 l 0,-115.8786 c -2.8688,-5.5912 -4.3744,-3.0775 -7.9174,-3.0775 z"
         style="fill:url(#linearGradient7961);fill-opacity:1;stroke:none" />
      <path
         style="fill:url(#linearGradient7963);fill-opacity:1;stroke:none"
         d="m 2817.431,1492.6358 c -5.3219,0 -10.5294,-13.433 -10.5294,-33.9723 0,-20.5392 5.2075,-34.9287 10.5294,-34.9287 1.7404,0 2.4799,-0.4878 3.8891,2.6272 l 0,64.5592 c -1.4092,3.1151 -2.1487,1.7146 -3.8891,1.7146 z"
         id="path7925"
         inkscape:connector-curvature="0"
         sodipodi:nodetypes="sssccs" />
      <rect
         style="fill:url(#linearGradient7965);fill-opacity:1;stroke:none"
         id="rect7927"
         width="15.754622"
         height="134.16626"
         x="3352.4382"
         y="-453.25351"
         rx="7.6056786"
         ry="6.7809668"
         transform="matrix(0.84843491,0.52929973,0.04595812,0.99894337,0,0)" />
      <path
         style="fill:#b8b8b8;fill-opacity:1;stroke:none"
         d="m 2948.1004,1246.4966 c -76.4196,0 -138.4311,61.9291 -138.4311,138.3486 0,3.4707 0.1613,6.9057 0.4125,10.3122 5.2563,-71.622 65.0545,-128.1188 138.0186,-128.1188 72.9641,0 132.6797,56.4968 137.9361,128.1188 0.251,-3.4065 0.4125,-6.8415 0.4125,-10.3122 0,-76.4195 -61.9291,-138.3486 -138.3486,-138.3486 z"
         id="path7929"
         inkscape:connector-curvature="0" />
      <path
         sodipodi:nodetypes="cccccc"
         inkscape:connector-curvature="0"
         id="path7931"
         d="m 2948.119,1245.6025 c -26.557,-0.4809 -52.3789,8.8132 -74.4954,20.1299 -3.1084,5.1377 -7.3001,32.6342 10.0647,20.0099 43.1899,-21.358 101.4992,-17.2132 144.2059,8.5734 -2.7773,-10.85 7.5213,-27.6852 -9.013,-32.2435 -21.7416,-10.4418 -46.2121,-16.1175 -70.7622,-16.4697 z"
         style="fill:url(#linearGradient7967);fill-opacity:1;stroke:none" />
      <rect
         ry="2.1387169"
         rx="2.3988311"
         y="1392.3622"
         x="2854"
         height="124"
         width="32"
         id="rect7933"
         style="fill:url(#linearGradient7969);fill-opacity:1;stroke:none;filter:url(#filter7607)"
         transform="matrix(0.7226793,0,0,0.31165584,790.41041,1061.7722)" />
      <rect
         style="fill:url(#linearGradient7971);fill-opacity:1;stroke:none;filter:url(#filter7607)"
         id="rect7935"
         width="32"
         height="124"
         x="2854"
         y="1392.3622"
         rx="2.3988311"
         ry="2.1387169" />
      <rect
         ry="2.1387169"
         rx="4.4228449"
         y="-1512.3622"
         x="-3072"
         height="124"
         width="59"
         id="rect7937"
         style="fill:url(#linearGradient7973);fill-opacity:1;stroke:none;filter:url(#filter7680)"
         transform="scale(-1,-1)" />
      <path
         inkscape:connector-curvature="0"
         style="font-size:446.23358154px;font-style:normal;font-variant:normal;font-weight:normal;font-stretch:normal;text-align:start;line-height:125%;letter-spacing:0px;word-spacing:0px;writing-mode:lr-tb;text-anchor:start;fill:#265377;fill-opacity:1;stroke:none;font-family:Serif;-inkscape-font-specification:Serif"
         d="m 2873.5312,1296.8125 0,1 0,1 c -0.3622,19.1744 -0.2698,38.3701 -0.094,57.5625 l 59.0937,0 c 0.091,-19.8595 0.2121,-39.705 -0.1562,-59.5625 l -58.8438,0 z m 93.0626,0 0,59.5625 59.1562,0 c 0.024,-19.8495 0.088,-39.7133 0,-59.5625 l -59.1562,0 z"
         id="path7939" />
      <rect
         transform="matrix(-0.34485232,0,0,-0.43570684,2000.96,813.44328)"
         style="fill:url(#linearGradient7975);fill-opacity:1;stroke:none;filter:url(#filter7680)"
         id="rect7941"
         width="59"
         height="124"
         x="-3072"
         y="-1512.3622"
         rx="4.4228449"
         ry="2.1387169" />
      <path
         style="font-size:446.23358154px;font-style:normal;font-variant:normal;font-weight:normal;font-stretch:normal;text-align:start;line-height:125%;letter-spacing:0px;word-spacing:0px;writing-mode:lr-tb;text-anchor:start;fill:url(#linearGradient7977);fill-opacity:1;stroke:none;font-family:Serif;-inkscape-font-specification:Serif"
         d="m 2881.5428,1306.3369 c -0.5826,57.8169 1.2114,115.6866 -1.0083,173.4675 -2.6173,16.928 -11.7707,34.0368 -6.6256,51.3488 3.9436,11.9501 18.2601,20.1383 30.3196,15.0038 13.2832,-4.6581 19.9835,-21.3712 14.6437,-34.2806 -2.8961,-12.6125 -7.7231,-24.9402 -8.3781,-37.9295 16.3856,7.8702 36.5127,3.7672 50.5992,-7.0224 5.7372,-3.6719 11.0362,-8.6331 16.1615,-12.7826 5.8927,16.7402 24.8451,27.6048 42.3466,23.5499 15.2777,-2.7463 27.3145,-15.6459 29.9115,-30.8237 2.1121,-8.3863 2.4939,-17.0963 3.0247,-25.7344 -4.0282,5.3715 -10.8494,2.7842 -16.3481,4.057 -6.4798,1.5865 -6.1512,9.4227 -7.5859,14.5476 -0.4713,3.3387 -4.1255,9.4462 -8.09,6.4336 -3.7843,-4.8695 -1.5612,-11.6726 -2.6264,-17.3316 -0.5619,-25.6658 0.3275,-51.3417 -0.1343,-77.012 0,-15.6759 0,-31.3519 0,-47.0278 -14.3876,0 -28.7752,0 -43.1628,0 0,40.2741 0,80.5482 0,120.8223 -10.3774,8.3422 -22.7697,18.7696 -36.9452,15.6519 -9.3684,-2.8357 -13.9769,-13.4231 -12.7121,-22.6125 -1.0858,-37.9445 0.073,-75.9089 -0.4192,-113.8617 -14.3236,0 -28.6472,0 -42.9708,0 l 0,0.7682 0,0.7682 z"
         id="path7943"
         inkscape:connector-curvature="0" />
      <path
         inkscape:connector-curvature="0"
         id="path7945"
         d="m 2891.9446,1321.5664 c -0.6318,53.9609 1.7516,108.0209 -1.5168,161.9097 -2.5119,15.3418 -12.2235,32.0425 -4.4536,47.1496 5.7033,8.4691 20.1875,7.2774 24.1074,-2.13 5.4792,-11.6942 -3.1671,-24.0493 -4.8468,-35.7631 -3.0847,-11.948 -4.4133,-24.5559 -2.3822,-36.8493 13.3105,15.9187 38.8238,15.2472 53.974,2.1947 9.8468,-6.6715 18.0233,-15.3392 26.4161,-23.688 -2.5621,17.5849 12.7653,36.795 31.0458,33.7889 14.7153,-0.7047 25.1832,-15.065 25.9791,-29.0126 0.6625,-2.5454 1.6174,-6.7979 -2.3236,-5.0345 -0.1625,9.553 -6.0986,22.6155 -17.4915,21.8806 -9.8415,-1.0734 -13.0595,-12.69 -12.5862,-21.1706 -0.4487,-39.6277 0.01,-79.2609 -0.1936,-118.8908 -8.025,0 -16.0501,0 -24.0751,0 0,38.0381 0,76.0764 0,114.1145 -13.0847,11.0579 -29.0522,24.0366 -47.3756,20.0733 -14.6267,-3.6178 -22.0575,-20.1221 -20.0302,-34.176 -0.8131,-33.3324 0,-66.6752 -0.269,-100.0118 -7.9819,0 -15.964,0 -23.9459,0 -0.011,1.8718 -0.022,3.7436 -0.032,5.6154 z"
         style="font-size:446.23358154px;font-style:normal;font-variant:normal;font-weight:normal;font-stretch:normal;text-align:start;line-height:125%;letter-spacing:0px;word-spacing:0px;writing-mode:lr-tb;text-anchor:start;opacity:0.73008848;fill:url(#linearGradient8124);fill-opacity:1;stroke:none;font-family:Serif;-inkscape-font-specification:Serif" />
    </g>
  </g>
</svg>
