/* XPM */
static char *microjuke_menu[] = {
/* columns rows colors chars-per-pixel */
"32 32 206 2 ",
"   c #131313",
".  c #181818",
"X  c #341313",
"o  c #391616",
"O  c #321A1E",
"+  c #3A1B1B",
"@  c #252525",
"#  c #2B2B2B",
"$  c #3F2020",
"%  c #31212B",
"&  c #342E2E",
"*  c #332730",
"=  c #2C353C",
"-  c #343434",
";  c #3D3C3C",
":  c #441B1B",
">  c #4D1F1F",
",  c #422323",
"<  c #4B2323",
"1  c #462A2A",
"2  c #492D2D",
"3  c #502525",
"4  c #552D2D",
"5  c #4E3434",
"6  c #4E3939",
"7  c #553C3C",
"8  c #5F3B3B",
"9  c #672020",
"0  c #6A2020",
"q  c #692E2E",
"w  c #6B3A3A",
"e  c #723232",
"r  c #793535",
"t  c #723C3C",
"y  c #2F3A42",
"u  c #2D364A",
"i  c #3D3F41",
"p  c #4D3E46",
"a  c #443E4F",
"s  c #3E4143",
"d  c #2A425C",
"f  c #3F4A54",
"g  c #274C6B",
"h  c #265376",
"j  c #275478",
"k  c #28557A",
"l  c #2C5A7D",
"z  c #385875",
"x  c #355978",
"c  c gray27",
"v  c #414549",
"b  c #45494C",
"n  c #4B4C4C",
"m  c #5B4242",
"M  c #5C4A4A",
"N  c #4F4556",
"B  c #414C55",
"V  c #404D58",
"C  c #4F5051",
"Z  c gray32",
"A  c #5B5B5B",
"S  c #624B4B",
"D  c #774545",
"F  c #774A4A",
"G  c #7A4D4D",
"H  c #675454",
"J  c #695555",
"K  c #6F5A5A",
"L  c #4F5962",
"P  c #595864",
"I  c #505E6A",
"U  c #755A6B",
"Y  c #4F6272",
"T  c #5B6872",
"R  c #636363",
"E  c #6A6464",
"W  c #6C6C6C",
"Q  c #766666",
"!  c #796666",
"~  c #70606F",
"^  c #7A6D6D",
"/  c #757575",
"(  c #7E7474",
")  c #7A7A7A",
"_  c #871F1F",
"`  c #881F1F",
"'  c #8E2D2D",
"]  c #833E3E",
"[  c #814747",
"{  c #894444",
"}  c #954747",
"|  c #9D4A4A",
" . c #8B585B",
".. c #965252",
"X. c #A24C4C",
"o. c #AA4F4F",
"O. c #A55252",
"+. c #AF5252",
"@. c #B35353",
"#. c #B55C5C",
"$. c #B85858",
"%. c #847474",
"&. c #837A7A",
"*. c #8C7E7E",
"=. c #947373",
"-. c #AB6565",
";. c #BC6464",
":. c #B06E6E",
">. c #BB6A6A",
",. c #315D81",
"<. c #3C6585",
"1. c #3F6B8E",
"2. c #406788",
"3. c #42698A",
"4. c #5E7689",
"5. c #477397",
"6. c #4E7492",
"7. c #4C779A",
"8. c #4F7A9E",
"9. c #5E7990",
"0. c #567D9D",
"q. c #5A7F9D",
"w. c #777F86",
"e. c #787F87",
"r. c #507CA0",
"t. c #5C809E",
"y. c #69859B",
"u. c #5481A7",
"i. c #5981A1",
"p. c #5C87AA",
"a. c #5D89AE",
"s. c #6389A9",
"d. c #778EA1",
"f. c #6990B1",
"g. c #6694BA",
"h. c #7D98B2",
"j. c #739CBC",
"k. c #7B9EBC",
"l. c gray52",
"z. c #8C8788",
"x. c #8A8A8A",
"c. c #928686",
"v. c #958B8B",
"b. c #939393",
"n. c #9B9494",
"m. c #9B9A9A",
"M. c #AF8182",
"N. c #A09696",
"B. c #A49B9B",
"V. c #89A6BF",
"C. c #A2A2A2",
"Z. c #AAA3A3",
"A. c #ACACAC",
"S. c #B7A3A3",
"D. c #B3ADAD",
"F. c #B4B3B3",
"G. c #BCB1B1",
"H. c #BCBBBB",
"J. c #C5A2A2",
"K. c #C2B7B7",
"L. c #C0BFBF",
"P. c #84A8C5",
"I. c #8EADC6",
"U. c #84ABCB",
"Y. c #82ADD2",
"T. c #8AB6DB",
"R. c #8FB9DB",
"E. c #9FBFD9",
"W. c #A9BDCE",
"Q. c #ABBFD0",
"!. c #9DC0DE",
"~. c #AFC1D1",
"^. c #BCCAD5",
"/. c #9DC2E1",
"(. c #A3C5E2",
"). c #A8C7E0",
"_. c #ADCBE5",
"`. c #B1CEE5",
"'. c #B3D0E7",
"]. c #BBD3E6",
"[. c #B6D1E8",
"{. c #BCD5EA",
"}. c #C3C3C3",
"|. c #CBCBCB",
" X c #D4D4D4",
".X c #DCDCDC",
"XX c #C0D7EB",
"oX c #C4DAEC",
"OX c #CADEEE",
"+X c #CCDFF0",
"@X c #D4E2EE",
"#X c #DAE6EF",
"$X c #CDE0F0",
"%X c #D4E4F2",
"&X c #D9E7F3",
"*X c #DDEAF4",
"=X c #E2E2E2",
"-X c #E9E9E9",
";X c #E3EDF6",
":X c #E6F0F7",
">X c #EBF2F9",
",X c #F1F1F1",
"<X c #F2F7FB",
"1X c #F6F9FC",
"2X c #FCFDFE",
"3X c None",
/* pixels */
"3X3X3X3X3X3X3X3X3X3X3X3X3XX X 4 8 4 + X 3X3X3X3X3X3X3X3X3X3X3X3X",
"3X3X3X3X3X3X3X3X3X3XX G -.>.;.$.@.$.;.;.-.D o 3X3X3X3X3X3X3X3X3X",
"3X3X3X3X3X3X3X3X+ [ ;.O.' ` ` ` ` _ _ _ ' X.$...: 3X3X3X3X3X3X3X",
"3X3X3X3X3X3X3X, :.{ 0 0 0 0 0 0 0 0 9 0 9 9 9 r #.$ 3X3X3X3X3X3X",
"3X3X3X3X3X3X2 H.S.< < 3 t } X.o.+.+.| ] w < < , =.G.1 3X3X3X3X3X",
"3X3X3X3X3X, F.H.F.J ..#.} q : : : : > e | $.F & x.H.D.$ 3X3X3X3X",
"3X3X3X3Xo Z.H.H.K.~ a u d h h 3X3X3Xh g d u N U M.H.H.Z.+ 3X3X3X",
"3X3X3XX c.H.H.}.m z ^.^.^.^.<.3X3X3Xj W.~.Q.W.6. .J.H.}.%.3X3X3X",
"3X3X3X7 }.H.L.7 3X<.2X2X2X2X3.3X3X3Xj #X>X:X;Xt.% M }.H.L., 3X3X",
"3X3XX Z.L.}.J 3X3X<.2X2X2X2X3.3X3X3Xj #X>X:X*Xt.3X3XK H.H.c.3X3X",
"3X3X+ }.}..X6 3X3X<.2X2X2X2X3.3X3X3Xh @X>X:X&Xq.3X3XX }.F.}., 3X",
"3X3XJ }..X=Xm 3X3X3.2X2X1X<X3.3X3X3Xh $X:X:X@X0.3X3XX L.H.}.S 3X",
"3X3Xn.K..X=XH 3X3X3.1X1X1X<X3.3X3X3Xj OX;X;X$X0.3X3XX L.L.H.%.3X",
"3XX D.}..X=XK 3X3X3.<X1X<X:X3.3X3X3Xh oX;X*XOX8.3X3X+ H.L.}.B.3X",
"3XX }.}. X.X! M K p >X<X<X;X3.3X3X3Xh ].;X*XoXP M 6 1 H.H.}.B.X ",
"3XX F.F. X.XD.&.W z.:X<X>X;X3.3X3X3Xh ].*X*X{.e.n R &.D.H.}.B.X ",
"3XX N.*. X|.l.C # C ;X<X:X&X3.3X3X3Xh `.*X&X{.I . # R B.H.n.z.3X",
"3X3XX H H.}./ C @ i *X:X:X&X3.3X3X3Xh _.&X&X'.V   # C m.F.m o 3X",
"3X3X$ C.A.|.) A # i &X;X>X%X3.3X3X3Xh ).&X%X'.f   @ v b.D.m.1 3X",
"3XX &.}.A.|.l.A # s %X;X;X%Xi.3X3Xh t._.&X%X_.f = k.y.l.F.}.^ X ",
"3Xo A.F.H.}.v.R @ v OX;X;X*X_.q.s.P.'.[.&X%X_.Y 9./.4.l.F.F.A.+ ",
"3X2 A.C.|.}.m.R # b OX;X;X*X&XXX{.OX`./.$X%X{.U.!.T.I l.H.C.A.1 ",
"3X2 A.m.=X XZ.R # v oX;X+X*X*X*X%X_.j.7.(.%X%XOX_.f.; x. XC.A.2 ",
"3X$ A.C.1X1XF.R # f {.;X'._.[._.U.8.h h r.R./.T.s.y b F.,XC.A.1 ",
"3X+ C.C.,X,XA.R # v ].;XE.l 1.1.j 3X3X3Xh & y.y   - / }.-XC.A.o ",
"3X3X! C..X=Xm.A @ T {.*X_.,.3X3X3X3X3X3X3XX K     # R H. XC.^ 3X",
"3X3X1 m.}.|.m.b   d.OX*X[.5.3X3X3X3X3X3X3X3XZ .   # R A.L.n.+ 3X",
"3X3X3X5 F.H.m.c   P.%X*XOXp.3X3X3X3X3X3X3X3X6 - @ ; ) C.A.m 3X3X",
"3X3X3XX ^ A.C.n @ I.OX*XOXs.3X3X3X3X3X3X3X3X$ ) n C b.C.^ X 3X3X",
"3X3X3X3XX 2 J ) ; h.[.&X_.u.3X3X3X3X3X3X3X3X3X1 v.n.M 1 o 3X3X3X",
"3X3X3X3X3X3X3XX O z Y.T.g.k 3X3X3X3X3X3X3X3X3X3XX X 3X3X3X3X3X3X",
"3X3X3X3X3X3X3X3X3X3Xj k k 3X3X3X3X3X3X3X3X3X3X3X3X3X3X3X3X3X3X3X"
};
